<?xml version="1.0" encoding="UTF-8"?>
<!DOCTYPE svg PUBLIC "-//W3C//DTD SVG 1.1//EN" "http://www.w3.org/Graphics/SVG/1.1/DTD/svg11.dtd">
<!-- Creator: CorelDRAW -->
<svg xmlns="http://www.w3.org/2000/svg" xml:space="preserve" width="210mm" height="297mm" version="1.1" style="shape-rendering:geometricPrecision; text-rendering:geometricPrecision; image-rendering:optimizeQuality; fill-rule:evenodd; clip-rule:evenodd"
viewBox="0 0 21000 29700"
 xmlns:xlink="http://www.w3.org/1999/xlink"
 xmlns:xodm="http://www.corel.com/coreldraw/odm/2003">
 <defs>
  <style type="text/css">
   <![CDATA[
    .fil0 {fill:#151515}
   ]]>
  </style>
 </defs>
 <g id="Layer_x0020_1">
  <metadata id="CorelCorpID_0Corel-Layer"/>
  <path class="fil0" d="M108969.82 60341.18l16530.74 0c-85.95,59.75 24.82,5.32 -159.87,88.04 -105.49,47.2 -90.24,37.82 -178.55,69.39l-1265.4 387.69c-1804.65,449.44 -1673.73,468.77 -3628.12,752.51 -3653.98,530.58 -7631.91,23.98 -11066.75,-1199.05l-175.99 -72.02c-12.42,-5.27 -38.6,-15.49 -56.06,-26.56zm11075.62 -48683.07c0,375.19 124.86,164.23 -22.73,467.77 -6.45,13.31 -24.4,42.24 -30.19,53.32 -6.09,11.7 -22.38,37.2 -29.74,57.49 470.67,-39.21 397.17,-237.4 495.92,-661.24 -203.89,-16.95 -413.26,-129.52 -413.26,82.66zm-20994.06 18101.16c130.55,187.8 -56.95,165.35 578.6,165.35 549.71,0 715.49,-82.69 1239.81,-82.69l0 -330.61c-473.3,0 -1541.21,-130.38 -1818.41,247.95zm32648.27 -5289.81l92.74 327.4c345.34,-26.37 1454.43,-362.63 1725.58,-492.71 -74.74,-150.82 -63.73,-103.38 -82.6,-330.63l-1735.72 495.94zm-18762.4 -10992.96l165.28 0c143.93,-300.07 -97.15,-818.21 -209.93,-1360.51 -170.16,-818.18 -444.78,-447.85 -427.62,-165.84 2.3,37.73 121.67,542.3 123.96,551.88 49.97,205.34 173.58,974.47 348.31,974.47zm19258.25 14216.41c14.46,646.95 179.91,335.18 823.18,327.96 937.34,-10.59 982.92,141.4 995.28,-410.55l-1818.46 82.59zm-9257.17 -13472.52c0,4.97 159.61,658.95 625.64,-531.55 87.54,-223.66 602.19,-1038.89 200.87,-1038.89 -290.21,0 -289.18,289.59 -467.87,689.27 -64.76,144.83 -358.64,799.88 -358.64,881.17zm-21489.96 9835.77c-666.8,-55.5 -1062.33,-413.28 -1735.72,-413.28 8.95,402.97 -45,333.83 304.9,439.02 1375.23,413.55 1417.95,550.73 1430.82,-25.74zm23721.6 22895.09l413.25 0 0 -2396.96 -413.25 0 0 2396.96zm8348 -20332.84c-318.38,0 -1128.97,100.99 -1405.09,165.35l0 330.57c598.55,0 827.8,-82.62 1405.09,-82.62 105.3,219.4 75.47,88.46 82.69,413.25l330.61 0c0,-1156.15 -33.35,-1290.85 -413.3,-1322.47l0 495.92zm-27027.74 -11488.85c-591.96,-137.91 -352.34,-455.54 -909.17,-82.64 182.23,248.74 552.59,348.86 830.7,491.74 492.59,253.08 309.38,410.7 657.08,665.4l238.01 -177.31c-123.17,-497.46 -485.98,-295.06 -485.98,-1806.36 -518.77,138.51 -330.64,312.96 -330.64,909.17zm3058.19 -2479.61l455.49 1445.58c104.93,274.93 49.64,263.42 371.07,290.14 160.52,-334.57 -49.55,-428.49 -82.69,-826.48 400.36,-192.12 484.71,6.96 495.94,-495.99 -536.77,44.67 -728.28,452.72 -743.89,-247.9 236.86,-19.76 626.21,-118.24 612.99,-326.84 -27.14,-429.49 -641.7,122.65 -1108.91,161.49zm-1487.75 34301.3l495.9 0 0 -2396.96 -495.9 0 0 2396.96zm2892.89 -34797.2c117.68,505.27 460.73,1313.45 495.87,1735.7 581.34,-48.37 247.99,-265.24 247.99,-743.86 0,-173.65 408.66,-208.41 578.56,-247.97 -108.63,-466.27 -65.41,-351.05 -423.38,-258.82 -353.16,90.96 -391.76,192.37 -403.17,-319.79 1105.67,-91.97 978.43,-872.72 -495.87,-165.26zm7852.08 60998.39l0 2562.3c0,274.87 148.41,242.06 413.25,247.99l0 -3058.24c-264.84,5.96 -413.25,-26.93 -413.25,247.95zm5041.88 -58353.52c228.03,53.18 186.22,39.87 330.61,165.35l1425.15 -1385.09c-803.37,-212.46 -369.12,127.36 -1259.86,723.87 92.72,-397.81 155.97,-844.93 247.94,-1239.85 -170.34,-90.14 -195.89,-114.66 -413.23,-165.28 -13.87,622.81 -316.76,1278.22 -330.61,1901zm-10579.71 -2644.87c0,1479.58 1401.93,1445.15 1487.8,413.26 -773.81,17.22 -111.98,330.61 -743.93,330.61 -353.79,0 -484.34,-680.7 -165.28,-1157.19 616.43,51.35 79.92,320.04 743.88,165.33 -64.64,-777.24 -1322.47,-645.08 -1322.47,247.99zm18101.21 11240.89c0,501.07 357.75,704.86 826.48,743.89 0,-439.18 -3.38,-461.82 -413.25,-495.95 0,-207.77 -108.82,-661.24 743.88,-661.24 242.96,0 298.2,130.64 285.64,297.21 -32.3,428.54 -176.53,-66.96 -37.67,529.34 711.08,-189.87 476.87,-1239.8 -247.97,-1239.8 -519,0 -1157.11,306.47 -1157.11,826.55zm1322.42 2314.3l0 -330.63c83.34,39.98 159.94,55.24 183.52,64.45l229.78 100.85c-198.92,46.39 -261.07,74.07 -413.3,165.33zm-826.51 -413.25c251.79,5.58 301.37,37.34 495.92,82.62l0 578.58c-425.49,113.6 -696.52,845.77 469.88,139.29 967.76,-586.11 990.8,-372.45 852.54,-965.82 -648.3,0 -1111.41,-165.31 -1818.34,-165.31l0 330.64zm-29176.75 -6199.05c223.17,18.54 224.86,38.77 413.22,82.62l-230.22 265.74c-149.37,-214.39 -117.68,-103.81 -183,-348.36zm495.91 1322.49l-495.91 -1322.49 495.91 1322.49zm0 0c65.25,-244.59 33.64,-134.01 165.29,-330.63l-262.04 -317.89c153.57,-173.18 199.25,-190.64 262.04,-426 510,0 623.01,128.86 661.27,-330.61 -593.19,-49.36 -1225.28,-363.92 -1818.39,-413.25 -176.39,313.97 -217.27,300.05 305.02,934.69 251.2,305.18 391.66,686 686.81,883.69zm25705.27 -2727.6l-265.67 -230.25c163.55,-87.7 285.19,-113.04 431,-183 -37.66,161.58 -83.3,303.07 -165.33,413.25zm-1157.12 -165.3c224.98,335.95 243.52,259.94 578.61,82.68l394.45 432.01c-187.75,371.55 -219,287.39 18.78,642.45 189.3,-138.69 672.56,-1121.12 811.2,-1435.05 467.65,-1059.47 -1681.07,111.45 -1803.04,277.91zm-27110.4 5207.21c194.56,45.28 244.11,77.04 495.9,82.62 -132.52,496.36 -344.47,143.5 -495.9,-82.62zm-578.63 -82.69c103.83,388.78 705.31,702.17 1007.78,975.92 231.7,209.63 121.4,234.05 480,263.89 -11.42,-513.99 -165.31,-334.23 -165.31,-495.92 0,-284.98 61.15,-320.02 82.69,-578.58 487.32,0 479.89,92.95 578.61,-330.59 -294.92,-165.71 -1267.04,-82.67 -1653.13,-82.67 -112.9,0 -90.28,-83.22 -330.64,247.95zm-909.14 4628.61c583.24,48.54 1050.59,165.3 1735.72,165.3 0,-478.26 82.62,-687.68 82.62,-1239.78l-330.57 0c0,624.85 -52.4,462.38 -82.69,826.53l-413.25 0c49.6,-596.04 285.59,-782.11 -247.95,-826.53 0,415.36 -74.34,370.08 -82.68,743.84l-330.64 0c127.22,-865.74 144.07,-618.75 0,-909.14 -432.89,115.57 -330.56,532.01 -330.56,1239.78zm30168.61 -8843.96c-340.52,228.04 -398.3,480.44 -137.65,879.33 264.5,404.79 572.63,383.04 964.18,195.16 253.03,-1086.26 -402.14,-1088.25 165.31,-1239.78 146.86,306.05 18.42,437.82 165.28,743.89 683.42,-182.51 192.26,-1074.52 -165.28,-1074.52 -1118.94,0 -386.63,863.09 -452.61,1168.79 -66,305.46 -368.74,169.54 -413.51,-112.81 -71.36,-449.74 385.04,-218.02 -125.72,-560.06zm1322.45 1239.8c0,555.33 133.15,549.03 0,826.53 -560.98,-149.74 -197.58,-255.47 -330.61,-826.53 -814.88,217.6 -249.54,1239.85 247.94,1239.85 184.95,0 578.59,-271.27 578.59,-413.32 0,-406.08 -154.57,-587.02 0,-909.15 403.05,269.91 195.49,352.29 182.41,420.78 -45.28,236.7 -194.79,-85.9 -5.13,231.82 102.33,171.49 41.76,103.62 235.97,173.95 727.34,-1086.24 -909.17,-1566.8 -909.17,-743.93zm-15621.55 -8182.72c0,482.65 43.83,716.8 71.56,1086.69 57.4,763.74 -237.21,483.73 1250.87,483.73l0 -330.57 -909.2 0 0 -413.32c651.26,0 550.81,54.12 826.58,-82.62 -35.86,-430.64 5.79,-355.73 -824.16,-233.81l-2.42 -427.43 826.58 0 0 -330.59c-854,0 -1239.81,-119.32 -1239.81,247.92zm-6694.96 2314.35c0,-136.57 237.37,-268.22 330.63,-330.63 226.67,52.83 290.91,64.45 431.89,229.27 363.99,425.6 181.62,695.2 146.65,845.25 -221.65,53.02 -155.82,82.6 -330.59,82.6 -321.35,0 -578.58,-477.52 -578.58,-826.49zm-330.64 -82.66c0,1740.78 1653.11,1418.19 1653.11,578.58 0,-1684.58 -1653.11,-1210.25 -1653.11,-578.58zm27606.35 60502.49c319.68,0 1239.8,-52.71 1239.8,-413.25l0 -247.95c-419.04,0 -450.33,82.62 -909.17,82.62l0 -2479.61c-412.53,96.14 -529.81,172.24 -401.23,1310.38 61.99,548.55 70.6,1083.03 70.6,1747.81zm-17191.92 -62403.54c0,561 600.8,518.53 826.48,826.53 -144.98,216.54 -41.81,170.88 -330.63,247.97 -214.53,-143.68 -220.5,-84.05 -247.9,-413.3l-413.3 0c104.65,1257.5 1709.28,766.81 1321.08,-73.1 -215.44,-466.13 -615.33,-194.51 -742.5,-670.79 646.88,-310.34 46.34,230.6 826.5,248.02 0,-358.22 10.2,-661.27 -661.2,-661.27 -333.86,0 -578.53,179.98 -578.53,495.94zm6529.61 3471.49c197.44,294.82 304.79,246.31 603.92,475.71 307.08,235.6 326.65,346.2 553.2,20.18 -119.37,-178.29 -428.35,-433.76 -661.2,-495.89 50.62,-217.36 75.14,-242.91 165.28,-413.32 558.05,295.31 580.39,512.34 759.12,333.61 258.01,-258.05 -318.42,-530.12 -511.1,-581.58 65.27,-244.53 33.56,-133.95 165.28,-330.57 798.12,534.45 527.23,503.7 909.17,247.97 -171.07,-255.54 -710.68,-555.61 -991.83,-743.89 -203.21,148.88 -927.69,1247.59 -991.84,1487.78zm1901.05 82.59c0,618.48 483.33,696.03 250.27,924.57 -160.99,157.83 -298.83,42.14 -368.09,-127.29 -186.07,-455.39 184.06,34.03 -47.53,-466.64l-330.63 0c-28.81,346.29 -139.36,383.41 44.76,693.45 417.99,703.69 1195.11,298.99 1195.11,-114.85 0,-469.66 -441.56,-588.45 -247.95,-991.83 517.86,346.78 -19.52,501.47 578.52,661.2 530.11,-943.58 -1074.46,-1365.78 -1074.46,-578.61zm-26779.86 9422.53c56.68,100.82 82.69,88.45 82.69,248.01l0 330.57 -413.25 0c91.43,-392.51 -6,-488.7 330.56,-578.58zm-743.84 826.55c188.63,90.49 1428.01,330.61 1735.7,330.61l0 -330.61c-321.12,-26.72 -215.34,-74.56 -578.53,-82.67 65.15,-782.96 806.58,-14.9 826.55,-909.17 -375.43,8.39 -579.43,117.17 -826.55,247.95 -145.04,-622.25 -1123.91,-749.23 -1157.17,743.89zm20250.16 50088.16c0,318.63 174.09,181.54 573.94,170.27 372.94,-10.48 748.5,107.98 748.5,-252.91 0,-337.44 -259.1,-247.95 -909.19,-247.95l0 -2479.66 -413.25 0 0 2810.25zm-8182.72 -29672.7l0 909.21 413.25 0 0 -909.21c0,-166.57 668.07,-1162.25 743.87,-1487.75l-495.92 0 -413.25 909.19 -170.4 -242.82c-76.89,-120.09 -99.56,-157.61 -181.31,-314.65 -207.73,-399.07 -80.53,-351.72 -640.13,-351.72 37.34,448.4 743.89,1253.09 743.89,1487.75zm22729.76 28515.56c397.74,-92.72 844.93,-155.98 1239.81,-247.97 23.69,-284.77 192.3,-451.79 -150.96,-483.83 -112.57,-10.5 -580.34,107.53 -675.62,153.21l0 -2479.61 -413.23 0 0 3058.2zm-8265.33 -29590.01l661.2 0 0 1983.66 495.92 0 0 -1983.66 578.6 0 0 -413.3 -1735.72 0 0 413.3zm-25705.34 29342.04c53.74,25.73 1322.47,522.59 1322.47,0 0,-332.47 -596.16,-340.34 -909.22,-413.3l0 -2479.59c-223.19,-18.59 -224.83,-38.74 -413.25,-82.66l0 2975.55zm8678.64 -29342.04l578.6 0c0,2150.07 -153.84,1983.66 495.92,1983.66l0 -1983.66 661.2 0c-12.28,-552.15 28.15,-413.3 -1735.72,-413.3l0 413.3zm8595.99 -32978.84l-330.59 0 0 -413.3 330.59 0c232.78,0 153.02,35.79 247.99,165.28 -49.24,184.22 -19.36,248.02 -247.99,248.02zm-743.89 1074.45l330.61 0c0,-681.94 -44.9,-486.66 82.69,-743.89 705.47,188.37 57.07,743.89 991.83,743.89 -78.28,-335.91 -246.89,-578.02 -413.25,-826.51 543.43,-145.1 395.96,-991.83 0,-991.83l-991.88 0 0 1818.34zm15952.18 16034.87c0,-591.97 674.91,-404.51 991.84,-330.64 148.24,619.3 116.69,661.2 -661.27,661.2 -193.43,0 -330.57,-137.13 -330.57,-330.56zm-413.32 -82.69c0,872.16 703.32,826.55 1157.19,826.55 946.13,0 997.88,-1570.41 -165.29,-1570.41 -478.45,0 -991.9,304.31 -991.9,743.86zm-32400.23 -1239.78c0,367.36 -42.89,482.21 82.68,743.86 190.58,-15.86 202.51,-8.08 289.67,-162.07 135.33,-238.92 -294.54,50.81 123.59,-251.23 247.64,181.46 554.6,983.05 -826.58,661.27 -238.31,-995.63 402.71,-324.8 82.69,-991.83 -751.67,200.7 -764.94,1487.75 495.89,1487.75 1179.74,0 852.9,-1570.44 413.33,-1570.44l-661.27 82.69zm31325.78 -5951.1c0,-679.58 991.83,-767.05 991.83,-330.64 0,287.4 -37.05,495.9 -479.56,598.37 -119.04,27.54 -512.27,-12.85 -512.27,-267.73zm-413.28 -165.28c0,1209.31 1818.36,1035.85 1818.36,-82.67 0,-1139.37 -1818.36,-850.72 -1818.36,82.67zm-9753.11 51410.6l0 2562.28c0,461.32 729.76,165.28 1322.42,165.28l0 -495.92 -909.17 0 0 -2231.64c0,-228.63 -63.77,-198.82 -247.94,-247.95 -139.34,96.8 -165.31,11.84 -165.31,247.95zm-19919.59 -52319.8l826.55 413.28 -1006.08 68.39c-252.5,92.25 -384.73,196.88 -127.85,392.3 58.75,44.76 260.13,138.94 332.93,174.3 519.92,252.52 1289.82,788.42 1109.61,230.47 -92.18,-285.43 -286.86,-145.88 -639.24,-452.21 323.11,-75.26 387.4,-39.56 738.75,-87.8 329.26,-45.18 346.67,-100.05 418.44,-408.12 -572.82,-133.45 -1039.21,-647.55 -1653.11,-661.2l0 330.59zm-1901 9670.45c33.18,398.51 88.45,306.89 345.73,283.9 318.35,-28.48 491.51,-63.26 728.72,-118.55 -338,461.37 -1232.63,686.54 -854.14,1065.03 85.88,85.9 78.75,62.93 349.15,19.34l1414.21 -257.84 -92.79 -327.4c-303.62,69.89 -667.98,88.97 -981.74,162.07 303.08,-413.6 1152.13,-684.45 840.2,-996.38 -181.69,-181.67 -1543.72,71.2 -1749.34,169.83zm4463.28 -12480.69l-148.76 -181.81c55.31,-252.59 127.59,-324.91 396.7,-396.8 168.43,351.08 9.42,399.73 -247.94,578.61zm-743.89 -82.62c482.81,128.88 1528.34,1635.78 1462.81,853.72 -23.79,-283.86 -279.89,-199.74 -388.31,-605.82 711.63,0 1106.65,276.33 1157.14,-330.59 -440.09,0 -462.33,-74.53 -826.51,-82.64 189.66,-395.2 -301.43,-1238.59 -1029,-367.81 -190.67,228.26 -304.32,264.24 -376.13,533.14zm25539.98 28267.54l0 826.55 495.92 0 0 -991.83c0,-248.63 619.29,-901.04 661.27,-1405.13 -232.57,0 -581.86,-223.72 -826.55,826.52l-165.28 0c-60.52,-259.68 -282.57,-579.44 -413.3,-826.52l-495.92 0c118.55,444.05 743.86,1151.04 743.86,1570.41zm4793.96 -15621.54c-454.1,394.66 -1141.83,219.14 -1157.16,909.19 361.83,84.33 1520.31,225.66 1818.36,82.64 -47.13,-430.99 -236.22,-330.63 -991.83,-330.63 115.59,-100.48 124.43,-110.3 304.43,-191.44 126.89,-57.24 250.67,-92.89 359.02,-136.95 342.21,-139.17 411.05,-99.96 411.05,-580.78 -393.9,-91.79 -1253.56,-165.29 -1735.77,-165.29 10.66,475.95 -102.56,413.26 991.9,413.26zm-23721.59 42318.71l0 2562.28c0,274.88 148.36,242.06 413.25,247.95l0 -1239.79c872.23,0 743.86,235.67 743.86,-495.98l-743.86 -82.62 0 -661.27 909.17 0c-5.6,-251.79 -37.34,-301.27 -82.69,-495.85 -1029.33,0 -1239.73,-162.59 -1239.73,165.28zm-24713.51 -38516.66l0 495.92c539.07,0 1105.67,-27.89 1605.29,47.76 1629.23,246.83 1370.22,-118.85 1370.22,-708.98 -645.99,0 -1514.78,23.36 -2089.56,-60.75 -354.19,-51.8 -885.95,-132.38 -885.95,226.05zm2396.97 -11571.47c415.83,219.98 2452,1209.94 2810.25,1239.78 62.29,-267.35 140.46,-362.6 165.28,-661.25 -463.22,-222.28 -2473.03,-1136 -2727.56,-1157.14 -106.99,202.11 -152.23,379.06 -247.97,578.61zm29342.06 22977.73c0,1545.79 1614.2,1727.05 1901.08,495.9 -194.63,-45.33 -244.15,-77.09 -495.99,-82.67 -48.42,582.29 -909.17,738.41 -909.17,-495.92 0,-166.31 314.86,-1258.88 991.86,-247.97 145.83,-69.96 267.4,-95.29 413.3,-165.32 -356.04,-672.78 -286.62,-661.2 -1157.19,-661.2 -382.95,0 -743.89,719.18 -743.89,1157.18zm-10910.27 -29507.41l-661.25 578.58 661.25 -578.58zm-661.25 578.58l661.25 -578.58 -661.25 578.58zm0 0c422,112.66 581.19,603.17 991.84,413.25 164.67,-356.02 -215.37,-497.09 -330.59,-991.83 283.08,207.37 322.95,548.86 743.89,661.27 113.58,-236.84 184.78,-238.6 -350.25,-806.96 -140.21,-149.02 -540.97,-607.11 -641.59,-680.87 -306.49,81.87 -106.85,83.49 -413.3,165.36 37.79,453.73 311.59,637.95 413.3,1074.45 -301.01,-201.52 -580.99,-404.91 -909.21,-578.56l-312.26 348.96 908.65 1130.73c285,280.22 576.12,226.52 407.09,-147.89 -77.67,-172.08 -367.17,-378.24 -507.57,-587.91zm16448.1 -3058.17c316.29,0 540.71,-782.42 826.51,-991.84 -72.63,311.89 -57.66,360.43 -94.76,741.41 -29.3,300.37 -201.42,580.99 177.42,580.99 253.27,0 832.04,-1052.79 959.33,-1291.27 108.12,-202.45 227.23,-102.59 32.81,-297 -375.77,-375.73 -390.26,469.45 -826.78,761.79 93.18,-400.29 82.61,-575.02 82.61,-1074.5 -414.94,-96.72 -362.83,-173.2 -768.82,553.65l-223.03 355.5c36.14,-434.07 165.35,-727.04 165.35,-1239.78l-413.32 0c0,447.24 -46.67,670.06 -85.65,1072.93 -33.35,345.09 -245.58,828.12 168.33,828.12zm-17605.24 31077.76c0,914.7 -116.86,2047.26 703.6,2191.4 321.05,56.46 717.1,-39.87 897.13,-259.99 290.34,-354.99 217.66,-1382.97 217.66,-1931.41 0,-293.81 -161.02,-247.94 -495.96,-247.94 0,1700.73 183.91,1983.71 -495.87,1983.71 -499.08,0 -330.64,-1212.78 -330.64,-1983.71 -334.92,0 -495.92,-45.87 -495.92,247.94zm26779.79 28680.84c0,2185.61 1653.04,1649.97 1653.04,578.61 0,-316.06 25.41,-30.12 -82.62,-247.97 -583.81,48.58 -120.44,299.11 -661.25,661.2 -684.63,-182.79 -663.82,-1892.38 82.67,-2066.34 226.62,166.01 197.34,244.04 330.63,495.92l328.18 -169.8c-103.41,-1336.89 -1650.65,-1058.5 -1650.65,748.38zm9835.76 -1983.67c0,2261.27 1417.43,1679.87 1618.46,693.22 78.68,-386.3 76.95,-293.18 -130.69,-445.27 -570.96,152.46 -7.57,675.76 -826.5,743.89 -733.49,-1386.2 304.43,-2829.72 578.6,-1653.03 217.34,-50.68 242.89,-75.22 413.23,-165.36 -70.31,-301.76 -103.64,-507.54 -329.09,-668.98 -596.42,-427.13 -1324.01,330.99 -1324.01,1495.53zm-18679.67 -26201.25l247.95 661.27 -413.3 0c9.68,-434.14 84.82,-315.64 165.35,-661.27zm-991.91 1653.1c394.48,0 533.66,44.23 578.59,-495.91 376.01,0 559.92,45.25 826.57,-82.67 86.95,181.25 144.19,325.15 165.28,578.58l495.92 0c-33.45,-402.05 -655.62,-2074.06 -826.5,-2396.96l-495.97 0c-150.14,644.46 -734.91,1996.98 -743.89,2396.96zm8926.61 26118.57c-194.51,-834.99 -303.4,-826.53 -743.89,-826.53 38.81,465.87 495.92,1082.45 495.92,1322.47 0,535.53 -445.95,1166.59 -578.54,1735.7 491.94,0 593.96,-76.1 826.51,-1074.5 75.91,87.33 43.15,23.13 137.6,193.08l275.7 716.14c251.81,-5.65 301.29,-37.31 495.91,-82.67 -66.49,-125.6 -598.5,-1327.27 -605.72,-1420.34 -23.53,-301.86 491.02,-1170.13 523.06,-1555.18 -332.79,77.5 -407.37,43.47 -550.43,358.73 -41.89,92.25 -74.32,216.29 -109.76,303.5l-166.36 329.6zm-14216.44 661.22c0,913.02 1074.52,923.96 1074.52,1239.81 0,223.24 -39.46,227.88 -82.68,413.3l-327.4 92.74c-240.05,-168.7 -303.12,-219.94 -333.8,-588.68 -466.48,10.4 -428.23,130.24 -287.72,525.87 374.86,1055.21 1655.14,502.78 1390.08,-629.3 -224.41,-958.32 -1019.74,-501.1 -1019.74,-1136.4 0,-352.29 530.37,-414.33 578.58,165.33l413.32 0c-27.07,-1214.96 -1405.16,-1232.47 -1405.16,-82.67zm8017.46 1074.5c0,189.68 13.1,495.92 -330.63,495.92 -567.24,0 55.73,-560.77 -743.89,-578.58 0,1538.21 1487.77,1361.07 1487.77,82.66 0,-1024.74 -683.13,-655.31 -1074.52,-1239.78 96.42,-182.3 72.12,-330.63 330.64,-330.63 517.5,0 -111.5,396.05 661.2,413.25 0,-1586.19 -1735.31,-899.3 -1321.96,240.38 277.15,763.99 991.39,468.12 991.39,916.78zm-4711.3 -27854.29l495.92 0 0 -1074.5 743.89 0 0 1074.5 495.92 0 0 -2396.96c-581.98,0 -495.92,-71.98 -495.92,909.19l-743.89 0 0 -909.19 -495.92 0 0 2396.96zm21076.73 6694.95l398.87 345.89c340.97,-233.98 514.34,-705.78 840.92,-924.48l1322.82 991.49c212.65,166.12 228.12,259.57 495.56,330.98 166.74,-122.18 268.86,-264.54 330.64,-495.89 -242.58,-362.23 -735.38,-591.1 -1093.86,-889.83l-1137.83 -845.89c-161.95,118.59 -1001.51,1255.29 -1157.12,1487.73zm-38186.02 20994.01c331.03,7.43 1086.57,173.77 1405.13,248l0 -578.58 -990.01 -98.7 -1.82 -810.47c359.58,7.99 450.82,82.61 909.14,82.61l0 -495.89c-1091.44,-24.33 -909.14,-196.99 -909.14,-743.89l989.93 98.63c3.89,-547.25 -187.17,-677.21 -1403.23,-677.21l0 2975.5zm40665.61 -4959.19l0 2975.57c500.07,-41.62 954.92,-293.16 1405.16,-330.63l0 -495.92c-394.01,0 -726.38,120.54 -991.91,247.95l0 -826.53c878.09,-204.61 909.22,-268.04 909.22,-743.89 -461,10.24 -448.2,155.06 -909.22,165.28l0 -661.22c383.65,-8.51 552.64,-135.63 909.22,-165.33l0 -578.51c-275.04,22.85 -1105.65,309.16 -1322.47,413.23zm-25209.35 3471.42l0 2562.3c0,274.87 148.38,242.06 413.23,247.99 0,-1628.54 13.01,-752.18 165.35,-1322.52l165.28 0c29.96,360.01 150.03,515.68 254.68,819.85 149.16,433.51 73.29,502.67 654.49,502.67l-743.86 -1818.39c177,-264.4 636.73,-945.4 661.25,-1239.85 -847.13,0 -548.61,539.7 -1157.19,1239.85 0,-222.56 6.26,-446.67 6.56,-667.83 0.61,-430.13 65.67,-397.97 -171.89,-572.02 -184.17,49.2 -247.9,19.36 -247.9,247.95zm-10001.1 2231.71c1310.58,29.15 1405.08,483.21 1405.08,-413.3 -766.41,0 -540.4,-45.1 -991.83,-82.64l0 -743.87c908.18,0 909.15,215.21 909.15,-248.01 0,-337.39 -259.06,-247.95 -909.15,-247.95l0 -661.2c1113.76,0 991.83,164.86 991.83,-247.99 0,-421.72 -1025.93,-330.62 -1405.08,-330.62l0 2975.58zm20250.17 -2975.58l0 3058.17c427.93,0 1000.93,-131.65 1405.07,-165.28l0 -495.92c-628.18,0 -665.87,75.4 -991.84,82.67l0 -826.53c845.09,0 909.17,80.86 909.17,-330.64 0,-401.98 -203.79,-165.28 -909.17,-165.28l0 -661.27c628.2,0 665.87,-75.35 991.84,-82.62 0,-441.4 36.7,-565.17 -548.84,-480.51 -291.38,42.14 -440.35,67.21 -856.23,67.21zm-21324.7 -27110.42l0 1653.1 413.26 0 0 -1405.08 253.69 407.51c534.26,971.68 317.2,997.57 986.09,997.57l0 -2396.96 -413.25 0 0 1487.75 -222.29 -356.28c-94.76,-188.62 -118.31,-254.51 -225.82,-435.38 -231.7,-390 -263.51,-696.09 -626.39,-696.09 -381.62,0 -165.29,527.91 -165.29,743.86zm8265.41 578.6c67.5,252.92 202.08,386.73 330.56,578.59 -201.37,106.52 -400.29,226.19 -575.18,-3.85 -180.02,-236.83 59.72,-450.91 244.62,-574.74zm82.59 -578.6c-105.23,-219.4 -75.37,-88.45 -82.59,-413.25 585.68,48.72 276.47,392.98 82.59,413.25zm-578.53 -247.97c0,300.28 98.04,289.95 165.3,578.6 -755.25,505.74 -430.71,1405.16 413.23,1405.16 186.71,0 281.44,-127.01 416.07,-169.97 510.17,-162.56 1.94,-15.94 380.16,42.14 185.18,28.46 269.98,49.08 264.42,-186.91 -8.44,-356.91 16.88,-3.94 -234.09,-346.53 102.35,-193.36 141.96,-215.16 165.35,-495.92 -192.03,-44.74 -173.35,-83.15 -364.53,-28.52l-107.18 48.49c-14.13,6.54 -42.09,24.5 -53.46,30.38 -11.55,6 -33.87,25.19 -53.44,32.32 -57.89,-241.69 10.6,-119.06 -165.33,-247.95 149.11,-222.68 405.94,-351.42 391.6,-649.97 -31.59,-660.64 -1218.1,-720.29 -1218.1,-11.32zm18679.76 26945.17l0 2810.19c279.12,-6.25 710.18,-102.82 939.29,-135.14 553.22,-78 465.77,-25.08 465.77,-608.72 -315.47,26.25 -676.34,139.01 -991.83,165.28l0 -826.5c458.86,0 490.15,-82.67 909.17,-82.67 0,-634.69 20.62,-552.28 -336.1,-521.04 -297.3,26.09 -351.98,56.25 -573.07,107.74l0 -661.2c293.37,-6.56 735.17,-105.51 991.83,-165.3l0 -495.92c-265.97,5.91 -1405.06,57.59 -1405.06,413.28zm4545.92 -826.58l0 2810.24c342.96,-7.64 1487.77,-163.82 1487.77,-495.94l0 -247.94c-388.99,0 -821.6,43.97 -1074.52,165.33l0 -826.53c308.56,-6.87 643.51,-103.48 909.22,-165.36l0 -495.91c-392.16,0 -597.03,92.58 -909.22,165.33l0 -661.25c822.1,-191.56 991.84,-56.11 991.84,-495.92 0,-369.09 -342.76,-191.18 -695.49,-119.93 -319.64,64.6 -709.6,56.16 -709.6,367.88zm-41161.53 743.89c0,-1206.27 938,-1231.46 1129.27,33.77 219.24,1449.81 -1129.27,1529.64 -1129.27,-33.77zm-413.3 -82.62c0,604.34 409.67,1735.72 909.19,1735.72 1088.61,0 991.86,-539.6 991.86,-1735.72 0,-382.69 -123.77,-613.93 -292.38,-864.8 -508.48,-756.22 -1608.67,-705.22 -1608.67,864.8zm-3802.08 247.95c0,274.9 148.41,242.08 413.25,247.97 0,-928.2 -103.45,-1041.24 330.64,-1157.19 73.05,313.43 188.22,623.04 305.01,934.81 181.13,483.45 105.26,587.25 686.82,635.61 -27.8,-334.41 -250.31,-722.94 -378.38,-1026.69 -149.74,-355.15 -279.04,-668.51 -365.51,-1039.65 193.08,-288.28 539.75,-604.27 743.89,-909.21 -164.27,-78.78 -295.52,-118.6 -495.92,-165.29 -212.79,317.79 -571.73,698.73 -826.55,991.84 0,-1259.35 151.69,-1309.84 -413.25,-1322.4l0 2810.2zm14299.1 3223.47c1072.34,0 909.22,-449.11 909.22,-1322.45 0,-282.21 -240.08,-279.49 -557.35,-286.15 -339.89,-7.12 -269.21,-34.54 -269.21,451.48 188.42,43.88 190.06,64.08 413.26,82.62 0,1091.16 -909.17,491.21 -909.17,-165.28 0,-613.2 -119.89,-1322.49 495.91,-1322.49 571.16,0 -25.66,478.78 743.89,495.94 0,-881.68 -420.77,-991.84 -991.83,-991.84 -605.02,0 -934.37,1444.44 -484.37,2468.08 111.5,253.69 393.5,590.09 649.65,590.09zm18101.13 -29755.29l-495.84 0 0 -578.58 330.58 0c367.22,0 426.17,114 495.9,413.22 -149.16,99.94 -145.27,165.36 -330.64,165.36zm-991.83 1405.08l495.99 0 0 -909.21c512.74,11.46 721.19,457.27 826.48,909.21l578.6 0c-111.87,-480.05 -486.19,-728.46 -578.6,-1074.5 656.81,-175.38 557.98,-1322.46 -165.29,-1322.46l-1157.18 0 0 2396.96zm2231.71 27358.38c168.4,123.42 390.35,469.1 413.23,743.88 -221.58,117.29 -379.06,254.77 -512.75,-61.52 -97.41,-230.51 35.11,-406.03 99.52,-682.36zm82.59 -1074.5c0,-228.68 63.8,-198.78 247.97,-247.95 0,435.75 85.53,394.76 -165.28,578.58 -53.09,-221.67 -82.69,-155.84 -82.69,-330.63zm-413.23 0c0,330.21 194.68,432.16 121.48,703.06 -105.38,389.93 -286.83,74.13 -286.83,1032.66 0,578.89 325.06,661.25 743.89,661.25 273.56,0 150.09,-144.71 365.48,-192.47 245.61,-54.4 9.92,11.43 378.45,109.8 68.96,-139.15 76.01,-145.29 165.28,-247.97 -78.93,-295.67 -434.65,-340.9 -82.68,-1074.5 -625.72,-351.52 -412.11,495.99 -606.57,-122.48 -110.18,-350.26 276,-301.44 276,-952.04 0,-863.61 -1074.5,-689.09 -1074.5,82.69zm-13637.9 1074.5c0,-1340.38 991.86,-1620.91 991.86,165.28 0,464.23 -135.33,640.5 -413.25,826.55 -395.84,-105.68 -578.61,-498.85 -578.61,-991.83zm-413.23 -82.67c0,2227.91 1818.37,1845.06 1818.37,413.25 0,-807 50.25,-1901.02 -1074.5,-1901.02 -482.61,0 -743.87,932.56 -743.87,1487.77zm8926.61 -10331.69c25.61,308.37 75.68,274.64 85.31,658.5 30.3,1207.04 247.83,1625.31 -168,1903.73 -320.49,-85.6 -322.01,-111.57 -330.57,-495.87 -478.78,0 -975.73,-117.07 -581.32,660.94 343.08,676.83 1821.11,559.5 1821.11,-412.97 0,-909.85 -82.67,-1497.46 -82.67,-2396.97 -414.77,0 -369.73,73.57 -743.86,82.64zm-15704.26 10579.64l-413.23 0 0 -1983.67c667.76,0 693.71,192.77 773.35,802.55 32.18,246.14 73.87,1181.12 -360.12,1181.12zm-826.53 413.3c437.04,101.83 975.41,264.61 1277.52,-42.78 211.87,-215.55 386.79,-875.74 364.71,-1267.48 -68.23,-1213.39 -333.19,-1665.29 -1642.23,-1665.29l0 2975.55zm45294.22 -38020.75l0 413.3c-849.61,0 -1464.62,-165.3 -2314.23,-165.3l0 661.24c236.04,5.28 820.76,75.35 1121.8,117.99 417.61,59.06 747.52,45.56 1109.84,129.96l-82.67 826.58c875.89,19.47 539.02,404.22 684.24,-803.54 58.55,-486.75 142.29,-991.98 142.29,-1593.46l-578.58 0c-43.15,185.35 -82.69,190.01 -82.69,413.23zm-14464.36 22068.59c183.52,687.29 655.95,368.53 751.7,1645.25 2.67,35.23 91.03,1062.83 94.19,1073.12 87.54,285.8 57.28,180.45 258.05,59.65 197.49,-118.76 207.07,-180.03 383.82,-298.43 -58.72,-252.17 -158.98,-874.88 -165.29,-1157.14 801.57,186.75 1033.39,925.34 1653.04,0 -211.36,-111.82 -444.1,-193.34 -688.81,-303.05 -281.77,-126.24 -512.02,-168.61 -774.87,-299.54 -377.89,-188.22 -783.55,-786.21 -1015.91,-1133.14 -145.95,97.74 -397.13,278.4 -495.92,413.28zm13803.16 -30664.53c21.87,262.33 109.15,585.35 165.36,826.55 -199.9,95.88 -821.03,189.07 -1081.42,241.05 -416.18,83.02 -767.11,165.59 -1150.29,254.87 18.35,219.93 89.81,503.79 165.3,661.2 716.49,-59.63 1474.04,-413.26 2231.69,-413.26 27.23,327.73 138,498.78 165.3,826.58 196.97,-45.94 415.65,-87.14 578.59,-165.35 -81.92,-351.55 -134.75,-718.44 -213.47,-1109.03 -81.43,-404.06 -199.86,-793.36 -199.86,-1205.28 -386.16,0 -341.88,49.24 -661.2,82.67zm-34549.25 45790.16l0 -743.89c460.34,220.88 661.2,-161.34 661.2,495.92 0,222.42 -122.44,271.97 -259.43,304.59 -152.37,36.22 -84.85,12.87 -229.41,-10.1 -20.63,-3.33 -77.6,-18.79 -93.47,-22.64l-78.89 -23.88zm-413.23 1570.42c0,232.75 35.72,153.07 165.28,247.97 390.36,-104.28 247.95,-151.55 247.95,-1239.86 369.84,30.8 383.51,225.64 497.42,494.47 93.89,221.67 186.47,487.85 246.47,745.39l495.91 0c-100.54,-431.68 -349.52,-980.38 -578.6,-1322.47 613.46,-410.8 679.78,-1735.73 -413.23,-1735.73l-661.2 0 0 2810.23zm26779.77 -3471.5l24.68 24.64c-1.64,-1.6 -32.89,-16.39 -24.68,-24.64zm0 -82.61c-189.1,-217.53 -302.63,-656.61 -414.12,-908.45 -368.82,-833.3 -295.41,-609.7 -660.38,-579.35l4.45 2816.97c79.55,407.63 408.85,156.23 408.85,-89.37l-82.69 -1653.08c234.35,269.6 427.76,1140.15 826.57,1735.75 150.76,-74.77 103.39,-63.78 330.57,-82.67l0 -3058.17c-521.04,11.6 -428,88.39 -418.11,656.33 6.75,387.52 4.86,774.33 4.86,1162.04zm-47856.5 -57031.07c0,247.94 -70.85,50.55 191.44,304.54l139.17 108.71c213.87,-143.23 419.86,-293.77 495.94,-578.58 333.5,27.79 308.65,87.72 519.1,307.38l1381.95 1263.06 432.03 -394.48c-126.99,-424.01 -554.46,-673.86 -857.61,-915.71 -333.91,-266.35 -549.21,-605.98 -896.89,-838.79 120.07,-179.41 164.89,-188.13 306.29,-354.99 110.9,-130.94 185.65,-259.47 272.3,-388.87l-398.91 -345.94c-155.61,106.71 -1584.81,1627.02 -1584.81,1833.67zm-4050.03 6281.68c246.05,130.22 276.31,222.83 578.59,247.95 82.71,-355.15 248.88,-437.81 330.56,-743.89 535.6,44.61 1673.68,1028.1 2231.71,1074.53 103.59,-195.87 191.7,-337.04 247.95,-578.59l-2066.34 -1157.14 415.51 -825.4c-193.86,-129.47 -270.5,-223.31 -580.79,-249.12l-1157.19 2231.66zm-1901.05 4711.28c202.15,106.92 379.06,152.18 578.58,247.94 79.25,-165.11 287.8,-725.44 330.64,-909.21 302.98,160.33 701.49,305.23 1063.44,424.31 373.43,122.86 783.91,312.71 1168.2,402.26 107.13,-223.36 165.33,-398.62 165.33,-743.88 -302,-25.15 -1868.05,-609.06 -2149.02,-743.89 71.41,-148.86 204.04,-638.12 247.97,-826.55l-494.19 -251.35c-161.11,304.55 -341.13,816.94 -467.25,1190.96 -130.08,385.93 -290.09,889.27 -443.7,1209.41zm7604.16 46534.05c0,271.19 166.74,310.03 413.25,330.56l52.06 -1787.78c23.15,59.96 45.77,123.73 65.62,182.35l627.34 1692.71c118.24,176.4 494.79,381.87 494.79,-4.59l0 -2562.3c0,-274.87 -148.39,-242.06 -413.25,-247.94l-59.47 1712.58c-7.59,-15.98 -43.07,-89.97 -52.68,-112.66 -41.77,-98.51 -76.32,-206.91 -112.62,-300.66 -540.61,-1397.3 -331.67,-1629.9 -1015.04,-1629.9l0 2727.63zm7356.19 -65296.48c33.21,398.98 1147.98,2324.29 1405.13,2810.25 241.5,-56.25 382.74,-144.36 578.54,-247.95 -48.26,-580.5 -309.07,-437.93 -495.92,-1239.83 310.27,-164.13 711.59,-308.86 909.17,-578.58 -81.8,-306.43 -83.44,-106.83 -165.31,-413.25 -448.15,9.98 -749.44,323.93 -1074.42,495.94 -152.14,-227.18 -217.93,-299.58 -248.04,-661.27 404.76,-94.29 769.5,-374.3 1074.52,-578.56l-251.28 -494.21c-331.15,76.22 -574.69,268.39 -869.77,447.64 -316.59,192.42 -555.8,297.45 -862.62,459.82zm44385 35706.42c0,475.53 266.09,869.42 743.89,909.19 46.74,-200.39 86.53,-331.64 165.33,-495.91 -130.57,-195.03 -336.17,-339.45 -293.3,-636.43 148.2,-1027.32 2588.18,-137.09 1653.25,671.49 -394.25,340.99 -450.76,-185.39 -450.76,791.44 1728.65,0 1730.59,-2644.89 -495.94,-2644.89 -800.39,0 -1322.47,599.02 -1322.47,1405.11zm-46947.28 30995.14c116.72,-243.33 330.62,-1569.78 330.62,-1983.66 45.63,65.6 42,35.03 89.69,158.2 55.03,141.8 34.53,76.52 69.26,261.38l254.3 1729.41c223.2,18.54 224.84,38.77 413.25,82.62 126.54,-263.67 333.4,-1796.68 428.79,-2304.32 66.28,-352.59 187.43,-461.98 -98.15,-671.18 -310.86,82.97 -206.91,-47.98 -342.66,814.46 -73.71,468.21 -63.47,618.26 -208.03,949.13 -5.33,12.18 -16.88,37.5 -27.9,54.77l-218.36 -1599.97c-82.01,-393.12 4.85,-383.7 -525.52,-383.7 -13.76,620 -247.95,915.27 -247.95,1653.04 -257.98,-189.03 -127.97,-39.5 -195.33,-465.87 -167.51,-1059.67 90.59,-1420.89 -548.56,-1435.11l337.34 2638.16c53.18,381.33 67.43,467.56 489.21,502.64zm47691.17 -32896.17l330.64 0c8.2,-366.45 169.05,-983.79 247.94,-1322.47 326.33,0 335.4,26.02 578.59,82.69 -10.48,471.24 -165.29,686.02 -165.29,1239.78l578.54 0c0,-426.21 84.51,-810.33 165.35,-1157.19 194.58,45.38 244.13,77.04 495.92,82.67 0,603.33 -165.28,801.78 -165.28,1405.16l578.53 0c0,-681.81 247.95,-1281.22 247.95,-1983.74l-2543.36 -445.18c-335.96,-20.83 -287.49,52.71 -432.76,940.53 -97.92,598.55 -333.04,1157.75 83.23,1157.75zm-5124.52 -22895.12c65.5,245.35 983.14,1608.23 1157.16,1735.73 240.1,-160.74 110.93,-167.16 413.25,-247.95 -34.29,-412.39 -334.83,-540.26 -661.2,-1157.14 189.5,-282.99 199.32,-256.34 495.92,-413.3l743.89 991.88 398.86 -345.91c-173.53,-265.37 -558.12,-726.99 -646.83,-1059.2 184.29,-97.48 248.88,-137.91 413.3,-247.97 183.4,346.69 568.01,725.4 661.2,1074.5 252.77,-58.85 317.67,-128.58 495.94,-247.95 -67.88,-291.33 -873.85,-1506.1 -1074.53,-1653.1 -416.79,97.1 -716.48,416.2 -1224.85,758.86 -295.76,199.43 -859.88,728.23 -1172.11,811.55zm3140.85 5537.85c34.55,415.04 623.94,1452.83 661.27,1901.01 347.4,-28.92 272.32,-93.94 578.51,-165.28 -107.83,-463.06 -377.04,-887.94 -413.25,-1322.47 181.29,-86.98 325.22,-144.22 578.61,-165.31 55.9,240.05 306.68,852.36 413.23,1074.52 256.52,-59.79 239.43,-105.54 495.94,-165.35 -21.61,-259.64 -307.32,-956.91 -413.26,-1157.12l494.19 -251.34c66.86,282.91 369.47,1000.95 497.65,1243.18 256.5,-59.79 239.41,-105.54 495.94,-165.36 -33.4,-400.97 -569.82,-1572.01 -743.89,-1901l-2644.94 1074.52zm-54634.08 25953.24c86.7,-324.8 412.15,-577.1 661.2,-743.89 130.22,246.12 222.82,276.33 247.95,578.59 -188.98,15.72 -777.24,101.97 -909.15,165.3zm-909.24 0c448.67,847.88 -3.37,776.54 2339.15,438.07 180.59,-26.11 845.07,-90.79 953.8,-128.27 318.44,-109.64 24.82,-235.74 -69.4,-640.43l-826.58 0c-66.98,-287.58 -281.48,-660.13 -413.25,-909.15 77.93,-116.44 725.91,-588.4 0,-1074.52 -224.65,150.42 -336.52,339.8 -514.95,559.52l-1468.77 1754.78zm-1653.03 -10827.58c-352.81,-29.42 -614.28,-156.97 -991.84,-165.36 139.08,-189.87 417.45,-315.12 690.03,-404.3 317.21,-103.76 136.48,-166.87 251.23,42.54 84,153.14 50.58,326.7 50.58,527.12zm-1818.41 -413.33l82.69 661.27c165.23,79.24 480.91,126.28 715.36,193.74 276.47,79.62 557.44,144.77 789.03,202.87 279.02,69.97 473.96,121.15 734,175.2 294.84,61.29 535.73,148.41 819.8,172.08l0 -661.27c-593.4,-284.72 -826.55,225.02 -826.55,-1322.47 313.12,-83.58 208.43,-161.72 578.58,-247.97 -26.58,-318.75 -82.67,-325.46 -82.67,-743.89 -280.31,23.37 -509.23,214.29 -743.42,331.11l-1405.72 743.3c-214.97,105.98 -661.1,232.01 -661.1,496.03zm53972.88 -25374.7c-82.5,354.14 -181.29,544.41 -330.61,826.55 -205.86,-137.79 -341.09,-225.63 -413.26,-495.92 234.59,-124.12 460.16,-264.49 743.87,-330.63zm-2479.56 413.3l2479.56 -413.3 -2479.56 413.3zm0 0c76,284.84 282.02,435.35 495.89,578.53 292.36,-68.08 425.23,-205.73 661.2,-330.56 99.98,149.32 661.27,678.61 661.27,743.86 0,335.35 -545.3,851.19 413.25,1074.53 29.25,-351.57 1050.5,-2517.84 1157.19,-2975.55 -116.72,-78.12 -438.24,-413.26 -495.99,-413.26 -485.67,0 -2231.57,1168.37 -2892.81,1322.45zm8265.35 31243.11c417.36,97.22 739.13,235.83 1074.46,413.26l-330.57 909.17c-508.97,-42.35 -648.26,-288.24 -1157.16,-330.57 -97.48,203.09 -158.56,357.85 -165.31,661.2 422.21,35.16 928.58,321.99 1352.59,465.83l1374.97 443.39c24.89,-298.64 103.05,-393.89 165.3,-661.27 -275.65,-64.17 -761.2,-219.96 -991.83,-330.57 27.56,-331.8 204.59,-753.66 330.61,-991.9 271.97,143.95 741.83,335.81 1074.5,413.32 62.32,-267.37 140.42,-362.65 165.31,-661.29 -308.87,-163.43 -2410.92,-965.47 -2727.56,-991.84 -52.97,227.3 -112.36,434 -165.31,661.27zm-10992.98 -34631.91c-251.91,-133.29 -329.84,-104.04 -495.92,-330.64 137.18,-204.84 512.79,-516.85 743.94,-578.6 -57.29,245.83 -154.25,713.91 -248.02,909.24zm-2148.95 0c97.54,365.37 268.87,332.06 578.51,495.89 202.52,-135.59 357.94,-207.1 495.94,-413.23 297.45,199.2 610.22,378.33 909.22,578.54 -8.35,373.83 -82.69,328.47 -82.69,743.88 354.54,94.69 203.32,209.89 661.27,247.95 0,-842.77 578.6,-2443.35 578.6,-3223.47 -252.98,-67.53 -386.74,-202.15 -578.6,-330.64 -484.76,324.64 -2252.13,1818.25 -2562.25,1901.08zm-37442.17 2314.3c129.78,193.74 302.84,418.92 475.18,599.32 217.97,228.15 283.59,362.28 495.05,579.45 370.45,380.56 675.4,853.77 1096.11,1135.53l1487.77 -1405.15c-146.51,-276.85 -61.73,-233.21 -330.59,-413.23 -432.33,115.43 -712.59,666.85 -1074.52,909.21 -134.88,-98.86 -315.52,-349.99 -413.3,-495.98 178.57,-266.54 481.95,-651.83 826.58,-743.84 -30.68,-368.75 -93.75,-419.98 -330.59,-578.56l-891.4 844.57 -449.91 -412.52c77.86,-107.02 902.23,-855.38 1010.68,-928.02 -119.98,-179.18 -156.12,-285.37 -330.64,-413.25 -627.68,167.58 -1052.75,975.8 -1570.42,1322.47zm21655.25 51741.24c0,2191.87 -267.05,2975.53 1487.77,2975.53 1292.09,0 991.88,-1831 991.88,-2975.53 0,-332.21 -306.02,-258.05 -743.89,-165.35 0,471.82 64.01,1770.17 -2.9,2146.63 -106.22,597.26 -1071.6,475.9 -1071.6,-245.58l0 -1901.05c-673.45,0 -661.26,-155.21 -661.26,165.35zm23143.06 -8513.35c0,-1224.95 1735.72,-469.55 1735.72,330.63 0,1262.54 -1735.72,546.24 -1735.72,-330.63zm-661.2 82.66c0,639.26 644.7,1570.4 1818.34,1570.4 784.83,0 2160.65,-1455.51 345.54,-2742.47 -968.37,-686.49 -2163.88,223.11 -2163.88,1172.07zm-47608.53 -39260.52c295.13,197.62 1735.73,1270.72 1735.73,1570.44 0,491.69 -295.95,717.96 -495.95,743.84 -322.64,41.83 -1481.98,-1127.89 -1901.05,-1239.78 -206.08,138 -277.64,293.41 -413.25,495.94 129.47,176.69 1588.39,1264.76 1850.94,1378.46 1021.7,442.31 1703.15,-1036.25 1703.15,-1378.46 0,-631.09 -960.69,-1275.9 -1415.83,-1642.37 -218.06,-175.58 -345.37,-342.57 -650.51,-423.99 -206.13,138.05 -277.64,293.39 -413.23,495.92zm45128.9 41574.83c258.3,385.73 608.55,666.28 826.52,991.85 176.84,-118.4 713.59,-575.23 826.58,-743.93 -50.63,-217.36 -75.21,-242.91 -165.31,-413.25 -493.8,41.08 -141.84,131.34 -578.58,247.94l-148.8 -181.8c208.08,-1151.09 1719.22,-656.61 1719.22,595.1 0,665.21 -1073.33,413.33 -1074.52,413.28 -106.93,400.39 -141.05,95.49 -247.95,495.89 1247.26,659.98 1983.67,-551.84 1983.67,-991.83 0,-742.9 20.53,-765.12 -556.04,-1344.99 -648.07,-651.78 -1379.93,-651.22 -2029.81,-1.08 -427.41,427.64 -294.55,440.65 -554.98,932.82zm-50501.42 -29590.06c0,1009.08 1198.75,1312.62 1694.22,289.13 174.66,-360.8 244.83,-664.3 702.71,-702.38 610.43,1153.64 -578.54,844.48 -578.54,1239.8l0 495.92c1014.78,0 1322.42,-587.4 1322.42,-1570.42 0,-843.36 -1194.9,-1373.12 -1763.91,-358.81 -110.11,196.27 -141.38,286.48 -259.67,484.16 -155.32,259.64 -79.66,279.56 -456.03,287.95 -418.43,-744.92 495.94,-744.03 495.94,-1074.52l0 -413.3c-756.07,0 -1157.14,341.79 -1157.14,1322.47zm26035.93 35871.72c6.35,285.24 106.48,821.91 165.28,1074.52 -318.49,-26.53 -266.48,-82.68 -661.2,-82.68 55.39,-237.82 109.08,-306.45 218.51,-525.36l171.96 -324.02c98.58,-153.47 32.7,-58.81 105.45,-142.46zm-1487.75 2066.36c489.61,0 422.3,-127.06 661.2,-578.58 343.62,80.06 791.39,112.08 1074.5,247.94 240.35,500.94 -201.07,743.89 826.55,743.89 0,-542.98 -312.92,-1906.44 -434.02,-2624.17 -127.57,-755.94 -187.74,-681.97 -805.76,-681.97 -282.26,0 -665.61,1015.21 -974.87,1504.79 -73.45,116.4 -156.94,224.54 -231,347.58 -504.12,837.6 -713.72,1040.52 -116.6,1040.52zm12235.08 -895.11c79.55,-365.58 162.94,-647.13 162.94,-1088.56l277.39 466.48c109.43,218.84 163.15,287.53 218.53,525.35l-658.86 96.73zm-332.97 -1832.45l-661.2 3223.48c1818.31,0 -327.57,-909.17 1983.67,-909.17 103.64,195.79 191.69,337.03 247.94,578.53 415.41,0 370.11,-74.32 743.89,-82.66 -27.35,-328.48 -168.99,-523.3 -314.56,-759.97 -421.19,-684.52 -669.09,-1339.3 -1255.86,-2215.54 -180.56,86.65 -517.08,112.46 -743.88,165.33zm20580.79 -12398.09c0,-1482.22 1735.72,-602.7 1735.72,165.35 0,1191.38 -1735.72,471.19 -1735.72,-165.35zm-661.27 -165.29c0,518.87 128.74,877.65 516.73,1219.07 984.82,866.67 2541.5,302.44 2541.5,-971.09 0,-752.96 -809.74,-1570.44 -1735.74,-1570.44 -591.45,0 -1322.49,750.77 -1322.49,1322.46zm-53559.56 -4215.35c-717.78,0 -1109.94,-1186.51 228.14,-1515.46 1304.8,-320.74 1424.12,1515.46 -228.14,1515.46zm-1239.85 -991.84c0,2713.73 3058.24,1664.71 3058.24,495.92 0,-2727.6 -3058.24,-1736.8 -3058.24,-495.92zm52402.48 -30003.31c0,971.66 687.99,1530.13 1570.4,1735.77 275.55,-411.47 585.4,-466.38 826.53,-826.57 -86.09,-322.48 -571.41,-821.05 -826.53,-991.84 -118.6,103.11 57.68,-32.27 -134.98,112.93 -96.52,72.75 -115.22,81.18 -195.61,135.02 109.5,470.09 230.34,285.87 330.59,661.22l-181.83 148.81c-1296.93,-255.59 -578.44,-1884.51 264.49,-1884.51 368.56,0 743.87,334.69 743.87,661.2 0,275.75 -316.65,337.76 413.29,826.56 813.62,-1215.11 -421.87,-2148.98 -1157.16,-2148.98 -786.52,0 -1653.06,781.25 -1653.06,1570.39zm4380.69 31573.73l1487.73 743.87c-767.05,0 -1315.51,82.68 -1983.67,82.68 -127.41,240.73 -239.77,375.26 -247.95,743.89 372.03,86.67 2081.55,1045.16 2562.25,1157.12 86.93,-181.22 144.19,-325.15 165.31,-578.54l-1421.03 -712.29c1004.28,-67.78 503.26,-114.26 1916.92,-114.26 164.84,-311.6 237.07,-342.28 330.64,-743.86 -730.84,-170.28 -1954.14,-1141.79 -2644.94,-1157.19 -71.35,306.26 -136.36,231.12 -165.26,578.58zm4545.92 -14051.1c76.26,-285.76 44.86,-254.35 330.56,-330.64l265.74 230.23c-83.02,262.24 -51.4,151.73 -183.05,348.35 -300.73,-70.08 -265.01,-45.65 -413.25,-247.94zm-1322.47 330.56c-769.15,-1453.67 1412.47,-945.83 0,0zm-661.2 -743.89c0,718.91 -53.49,666.29 330.56,1239.85 -60.14,69.22 -120.49,136.48 -182.88,230.35 -69.12,103.92 -94.97,165.8 -147.68,265.57 146.51,276.89 61.73,233.21 330.56,413.23 134.89,-98.77 315.52,-349.9 413.3,-495.89 280.43,65.32 425.35,173.72 743.89,247.94 80.53,-345.63 155.6,-227.11 165.28,-661.2 -223.17,-18.58 -224.86,-38.74 -413.25,-82.68 71.81,-269.09 144.14,-341.4 413.25,-413.28 215.37,806.51 1405.09,591.68 1405.09,-330.56 0,-471.66 -191.65,-773.71 -514.9,-898.04 -371.09,-142.71 -663.26,72.96 -972.83,236.77 -599.23,-1132.51 -1570.39,-414.12 -1570.39,247.94zm413.25 -6694.92l-82.69 1074.46 82.69 -1074.46zm0 0l-1341.41 1386.27c81.24,286.2 159.4,381.45 184.27,680.09 610.32,-13.59 2234.62,-696 2810.18,-743.86 -6.71,-303.43 -67.83,-458.12 -165.29,-661.3l-1570.44 413.26c146.47,-218.65 257.14,-277.65 433.13,-476.05 1115.45,-1257.26 880.09,-648.4 641.4,-1672.88 -252.01,58.71 -324.85,129.35 -612.5,213.98 -290.06,85.46 -453.94,128.09 -710.28,198.92 -490.1,135.52 -885.82,292.71 -1404.78,413.63 6.75,303.35 67.83,458.04 165.28,661.2 215.82,-103.55 1262.24,-406.39 1570.44,-413.26zm-56783.12 25870.65c120,179.15 156.14,285.35 330.59,413.23 306.58,-71.39 990.45,-631.51 1405.13,-909.22 -141.59,607.71 -650.49,1500.22 -743.89,1901.07 135.61,202.48 207.12,357.85 413.25,495.9 440.19,-102.52 2035.8,-1473.97 2397,-1570.42 -156.97,-296.58 -130.29,-306.42 -413.26,-495.92 -525.66,140.37 -923.86,698.02 -1405.13,826.56 73.5,-153.17 743.86,-1766.9 743.86,-1818.39 0,-203.32 -274.05,-485.39 -413.25,-578.58 -139.99,37.4 -2158.07,1502.38 -2314.3,1735.77zm46038.13 -41161.63c0,693.78 -233.77,1346.03 -247.97,1983.74 191.77,128.37 374.81,276.78 578.58,413.25l885.12 -1181.23c312.62,-415.5 611.42,-763.69 850.6,-1215.76l-394.45 -432c-396.61,295.6 -777.19,1156.86 -1175.96,1423.91 149.69,-642.43 181.76,-1427.45 330.63,-2066.41 -191.9,-128.44 -325.66,-263.06 -578.58,-330.58 -231.14,169.36 -1104.05,1415.23 -1386.08,1754.77 -157.17,189.35 -367.83,400.72 -432.33,642.22 166.97,111.79 328.95,218.79 495.92,330.56 134.72,-201.16 343.34,-428.49 507.24,-649.92 192.37,-260 364.92,-439.72 567.28,-672.55zm-37194.19 -1239.78c0,-219.31 188.11,-483.68 329.04,-584.51 683.21,-489.07 1406.73,561.21 1406.73,1163.09 0,288.1 -373.18,661.2 -661.27,661.2 -517.25,0 -1074.5,-778.76 -1074.5,-1239.78zm-661.23 0c0,652.41 110.33,811.46 457.74,1277.99 970.98,1303.83 2600.46,254.76 2600.46,-616.72 0,-1826.54 -1484.24,-2573.5 -2579.58,-1670.4 -256.29,211.31 -478.62,560.11 -478.62,1009.13zm16365.44 56617.82l-743.87 0 0 -743.89 330.57 0c335.04,0 743.93,89.06 743.93,413.25 0,193.51 -137.13,330.64 -330.63,330.64zm-661.2 -1570.42l0 -413.25c509.56,0 909.19,-72.75 909.19,413.25 0,377.91 -909.19,377.91 -909.19,0zm-826.53 2066.34c1155.01,0 2479.56,502.78 2479.56,-826.56 0,-461.32 -219.89,-558.94 -413.23,-661.2 203.23,-303.49 330.64,-250.66 330.64,-743.88 0,-476.89 -314.42,-674.33 -737.98,-749.82 -339.4,-60.52 -980.96,-130.48 -1328.43,-159.4 -178.45,371.93 -330.56,2496.74 -330.56,3140.86zm-28033.73 -35874.07c548.96,126.94 1219.23,126.68 1749.86,250.29l-245.33 168c-88.59,48.75 -161.18,78.07 -285.04,128.23 -1521.72,616.06 -1193.03,511.6 -1370.71,1274.21 313.95,150.63 2584.8,413.3 2975.51,413.3 26.53,-318.54 82.68,-266.49 82.68,-661.27 -410.23,-95.58 -1295.33,-211.31 -1735.72,-247.95l412.74 -248.48c382.13,-168.36 1157.19,-557.4 1405.65,-578.07 87.54,-1052 458.56,-839.49 -1320.15,-994.15 -459.43,-39.92 -1120.88,-162.97 -1572.76,-162.97l-96.73 658.86zm18776.49 31906.71l-1157.19 -661.27c-139.47,208.4 -263.46,373.15 -330.56,661.27 330.35,221.25 661.46,439.99 991.83,661.19 -191.04,285.33 -502.52,342.66 -826.55,826.58l476.82 515c382.45,-118.86 397.78,-355.53 816.35,-626.96 257.18,-166.83 -38.32,-102.89 359.94,-136.01 66.09,247.45 481.26,859.97 661.19,991.83 288.15,-67.1 452.87,-191.08 661.27,-330.61 -224.83,-424.83 -600.66,-847.55 -661.27,-1074.52 389.35,-90.7 760.11,-297.56 1157.12,-330.56 -10.73,-484.02 -129.7,-316.51 -165.28,-743.89 -454.81,10.08 -822.8,233.46 -1239.78,330.56 29.72,-357.26 157.08,-871.95 165.33,-1239.78l-826.56 -82.69c0,418.3 -82.66,704.77 -82.66,1239.86zm24713.43 -1074.53c0,326.7 100.2,960.27 165.36,1239.83 -451.53,-37.59 -763.35,-237.38 -1239.79,-247.99 -71.62,307.22 -157.05,371.09 -165.35,743.88 416.84,34.67 740.35,213.26 1157.19,248l-661.27 1157.09c200.86,53.65 469.08,228.99 661.27,330.64l826.53 -1074.5c322.43,215.95 670.31,636.03 1074.45,743.86 252.12,-168.75 330.42,-331.34 495.94,-578.51 -244.24,-163.62 -758.02,-518.18 -909.19,-743.89 281.18,-188.32 820.78,-488.46 991.83,-743.88 -67.5,-252.97 -202.15,-386.73 -330.61,-578.59 -495.75,115.48 -682.86,539.07 -1157.12,578.59 0,-518.75 -82.68,-743.59 -82.68,-1157.17 -440.02,0 -461.37,73.78 -826.56,82.64zm-13637.83 -33192.94c364.27,154.08 327.92,912.08 1326.11,948.55 887.02,32.39 1028.13,-536.56 1401.45,-945.52 0,-635.4 42.66,-1139.89 -194.88,-1577.73 -216.17,-398.68 -541.37,-607.48 -1127.99,-616.7 -1236.62,-19.45 -1404.69,987.03 -1404.69,2191.4zm-29424.73 12033.62c0,394.71 56.18,342.66 82.62,661.2 702.03,0 1205.52,-82.64 1983.74,-82.64 -91.52,79.52 -19.9,40.57 -194.16,136.45 -123.07,67.74 -127.71,57.19 -228.04,102.63l-1313.52 670.13c22.69,273.03 107.51,495.85 165.3,743.87 599.26,0 1109.45,82.64 1818.39,82.64l-742.71 414.45c-333.12,163.19 -517.6,204.4 -827.73,412.08 62.3,267.35 140.46,362.63 165.31,661.2l2008.91 -966.55c176.18,-97.22 174.33,-105.61 320.65,-175.33 166.29,-79.29 250.15,-102.31 398.04,-180.52 -57.8,-248.02 -142.62,-470.84 -165.35,-743.89l-1850.99 -197.95 637.74 -354.03c256.95,-128.18 664.08,-381.56 882.61,-439.85 0,-436.86 -99.75,-629.16 -247.9,-909.22l-1407.85 79.9c-543.68,-0.45 -860.4,85.43 -1485.06,85.43zm58766.8 -20498.13c-311.84,465.66 -579.01,620.3 -878.24,940.14l-361.57 299.67c73.46,315.33 174.45,345.87 247.95,661.2 627.89,-52.22 1203.1,-330.57 1901.03,-330.57 -171.29,233.77 -148.46,119.58 -717.66,439.39 -270.54,151.99 -515.23,252.26 -770.09,387.1 25.64,307.92 129.49,437.37 247.94,661.24 419.61,-221.98 819.85,-404.65 1268.57,-632.46l1293.71 -689.98c-94.67,-406.3 -251.02,-567.69 -330.64,-909.17 -694.53,0 -1479.78,193.9 -2066.29,330.58l1424.12 -1468.83 -434.48 -844.34 -2627.88 1268.51c10.78,278.04 114.66,407.49 233.09,631.41l1570.44 -743.89zm-14051.13 -12646.04l1570.44 578.61 -1570.44 -578.61zm0 0l45.47 -177.73 -45.47 177.73zm0 0c-9.52,425.79 -234.5,1323.13 -330.64,1735.72 195.87,103.67 337.04,191.7 578.61,247.95 368.13,-246.47 937.67,-1147.44 1322.47,-1405.06 -130.03,557.98 -699.43,1200.99 -743.89,1735.72 195.8,103.59 337.03,191.7 578.53,247.95l1321.98 -2727.82c-248.55,-131.55 -621.14,-346.03 -908.68,-413.04 -187.92,125.81 -1046.86,1220.56 -1322.47,1405.13 67.93,-291.63 113.28,-597.94 164.79,-909.73 54.26,-328.69 158.37,-655.9 165.85,-991.34 -243.19,-162.82 -540.05,-382.53 -909.22,-413.23l-1353.71 2711.99c233.39,122.49 410.3,167.79 609.83,263.51 294,-555.61 528.02,-1144.27 826.55,-1487.75zm-2727.54 19423.6c42.43,510.08 453.48,977.73 495.9,1487.78l-1157.19 0c270.03,-562.72 449.21,-1332.34 661.29,-1487.78zm-2396.99 3388.85l1074.5 0c36.7,-441.42 244.34,-704.11 330.57,-1074.52l1818.41 0c113.83,215.09 353.97,819.94 413.3,1074.52l1074.45 0c-25.2,-303.21 -1424.54,-3699.35 -1621.82,-4163.93 -228.49,-538.06 11.98,-464.7 -1105.74,-464.7 -312.56,0 -883.72,1712.52 -1086.33,2219.83 -150.19,376.13 -866.89,2042.64 -897.34,2408.8zm-20663.43 0l909.17 0 0 -2892.91c253.86,185.96 83.44,59.32 255.14,323.47l1228.68 1912.16c457.99,769.83 259.08,657.28 1409.09,657.28l0 -4628.63 -909.22 0 0 2892.91c-588.19,-430.97 -1647.47,-2892.91 -2066.35,-2892.91l-826.51 0 0 4628.63zm14877.68 47360.58c-6070.18,0 -11029.64,-118.29 -16991.31,-1109.86 -3421.8,-569.09 -7478.79,-1407.86 -10810.47,-2414.15 -288.08,-87.03 -407.26,-169.9 -713.78,-195.43l0 -7025.55 2634.44 919.67c904.88,276.92 1772.69,569.58 2719.97,834.12l2827.44 726.74c980.38,236.81 1862.83,413.04 2928.59,625.48 541.43,107.95 891.7,204.04 1440.12,295.54 2969.81,495.69 8410.88,1144.39 11336.4,1144.39l4711.22 0c1290.34,0 2355.58,-133.89 3554.93,-164.5 1403.31,-35.84 6937.45,-755.35 8347.48,-992.38l3134.63 -584.81c513.94,-106.53 1002.57,-236.7 1555.22,-345.8l7324.44 -2015.45c412.73,-120.71 1082.23,-434.65 1458,-443l0 6777.58c0,343.01 -779.7,416.16 -1269.43,548.94 -1895.07,513.96 -3944.95,1111.13 -5886.13,1470.05 -551.44,101.93 -1070.09,167.3 -1539.55,278.84 -1774.37,421.39 -5985.93,933.17 -8015.74,1158.88l-4280.75 347.81c-1583,41.16 -2823.21,162.89 -4465.72,162.89zm31987.01 -10166.43c240,327.66 4273.67,2645.69 5125.81,3222.23l329.3 249.21 -11075.58 0 0 -6694.94c3658.48,0 7185.45,-82.66 10910.27,-82.66l-4919.98 3097.45c-234.94,154.99 -79.24,131.08 -369.82,208.71zm-72322.06 -3306.16l10827.66 0 0 6694.96 -10992.94 0c87.12,-75.7 11.72,-16.64 143.07,-104.9 71.67,-48.1 69.82,-44.16 151.59,-96.38l3739.34 -2294.36c337.17,-212.23 1165.06,-634.15 1338.47,-893.16 -183.04,-249.82 -1482.1,-961.34 -1900.88,-1239.97l-2648.36 -1649.56c-117.71,-67.48 -209.98,-103.72 -325.32,-170.65l-332.63 -245.98zm46120.8 -62899.49l-5537.78 1818.39 5537.78 -1818.39zm-5537.78 1818.39l5537.78 -1818.39 -5537.78 1818.39zm0 0c280.83,134.79 397.79,12 473,2.67 145.76,-18.07 -29.77,-38.53 128.63,6.96 415.69,119.28 -16.18,123.57 555.49,-9.63 118.97,177.63 321.68,404.82 476.72,597.99 58.97,73.41 172.88,233.44 218.02,284.32 272.44,306.66 98.93,94.69 310.06,166.34l688.59 812.07c203.54,233.08 6.36,175.15 372.94,205.64 0,-437 0.57,-123.21 82.69,-247.95 90.1,386.82 402.71,983.33 601.58,1137.1 225.23,174.24 62.18,96.49 390.26,20.06 35.48,426.1 313.22,644.42 528.94,958.77l530.56 676.43c74.13,46.83 110.74,195.38 113.41,-113.39l-96.52 -3094.17c2.16,-528.89 -84.56,-678.17 -84.56,-1155.24l247.97 0 0 -2066.36c194.11,41.11 125.21,26.11 200.21,-4.14 314.25,-126.76 -307.55,206.43 81.77,-51.5 561.14,-371.67 -390.35,100.9 131.25,-109.64l182.72 65.28c64.13,16.59 138.24,28.78 205.5,42.42 113.86,23.15 226.27,44.95 405.99,90 1366.91,342.4 2661.16,673.5 3951.94,1172.51 1461.2,564.94 2999.17,1076.56 4342.13,1856.95 1472.75,855.8 2998.75,1698.15 4326.64,2781.58 2761.89,2253.27 4493.72,3680.93 6764.52,6707.99 1178.87,1571.5 2234.36,3181.45 3156.47,5026.25 1740.6,3482.13 2914.5,7006.29 3551.01,10913.39 81.4,499.88 209.07,1258.32 223.51,1842.88 11.06,446.21 73.26,497.28 85.4,906.43 23.79,803.58 133.25,2345.24 32.18,3013.15 -163.29,1078.57 -84.72,2516.5 -306.26,3826.47 -779.23,4608.97 -1855.44,8310.74 -4053.75,12394.25l-3277.59 4905.18 -1635.78 1918.32c-110.58,119.44 -171.71,174.1 -288.05,290.54l-359.12 384.79c-73.89,73.15 -48.86,41.11 -130,117.97 -512.26,485.3 -1014.01,1104.59 -1590.74,1550.02l-3424.85 2691.58c-807.4,595.27 -1662.01,1090.67 -2526.23,1606.47 -1077.54,643.08 -2245.84,1223.35 -3411.44,1713.03l-2255.85 885.03c-495.17,198.66 -1022.52,312.33 -1546.23,520.13 -958.25,380.2 -2258.76,647.06 -3282.91,849.78 -1162.18,229.99 -2336.22,452.25 -3602.49,530.16l-2896.14 162.07c-452.61,5.69 -565.9,117.89 -973.2,77.15 -1234.23,-123.49 -2543.95,-105 -3782.02,-274.64 -1764.78,-241.78 -3454.69,-616.99 -5159.8,-1039.2 -1578.59,-390.87 -3089.97,-1031.05 -4618.43,-1580.61 -3109.1,-1117.95 -6358.12,-3344.13 -8985.88,-5395.89 -1117.09,-872.25 -2516.6,-2271.29 -3472.67,-3304.9 -11.53,-12.49 -28.68,-29.9 -40.21,-42.46l-4159.37 -5428.42c-290.39,-440.07 -482.2,-855.73 -736.64,-1329.69 -1661.76,-3095.41 -2939.18,-6333.02 -3561.85,-9828.09 -59.13,-331.8 -118.66,-564.66 -178.24,-896.28 -111.54,-620.37 -217.2,-1178.65 -283.03,-1783.3 -356.49,-3274.99 -425.23,-4436.25 -171.31,-7693.31 148.57,-1906.63 455.82,-3517.97 932.45,-5266.51 653.37,-2397.04 1648.65,-5264.19 2942.52,-7389.19l1921.21 -3203.37c920.33,-1448.96 2061.79,-2714.8 3161.01,-4029.87 590.42,-706.24 1399.98,-1401.19 2061.95,-2070.76l2801.32 -2323.21c117.07,-94.57 135.75,-127.59 273.45,-222.45l1570.53 -1074.4c1694.21,-1129.58 3538.85,-2073.16 5431.16,-2834.2l1487.02 -579.28c1110.46,-416.28 3717.66,-1238.94 4864.65,-1334.4l0 -1322.43c-380.48,8.47 -1330.08,228.99 -1671.38,312.24 -493.08,120.42 -1108.84,280.27 -1562.94,420.8 -2925.05,905.05 -5708.95,2087.38 -8280.64,3621.47 -2434.4,1452.13 -4687.88,3210.96 -6689.53,5212.6l-1447.67 1527.86c-226.22,225.96 -275.3,356.44 -493.72,580.8 -1191.52,1223.92 -2478.9,3100.41 -3354.14,4580.64 -260.34,440.27 -490.05,785.65 -744,1239.68 -720.97,1289.05 -1399.16,2601.7 -1968.95,3982.11 -1137.31,2755.19 -2285.85,6449.64 -2467.87,9434.24 -34.33,563.44 -151.52,1263.97 -168,1815.67 -20.11,673.59 2.72,1390.39 2.72,2069.05 0,3878.3 542.86,6960.04 1505.09,10397.01 1007.92,3599.98 2580.19,7090.76 4753.79,10123.96l1250.28 1725.23c905.89,1109.04 1829.81,2174.03 2844.33,3189.37l1485.62 1489.98c2188,2023.74 5012.04,3994.48 7666.57,5310.03l4109.49 1841.52c972.64,390.26 1970.87,660.64 2968.14,999.22 421.76,143.16 1185.52,382.15 1684.23,382.15l0 82.69c-839.75,0 -1625.56,-165.75 -2443,-284.63 -3227.11,-469.29 -6228.41,-992.28 -9323.92,-1834.35 -404.49,-110.04 -634.2,-218.98 -1076.96,-328.05 -1082.61,-266.82 -2156.31,-667.72 -3201.37,-1014.01l-2055.91 -754.34c0,-1001.28 161.8,-2032.96 -247.94,-2644.92 -1157.14,0 -2314.33,0 -3471.49,0 -2003.38,0 -5122.33,282.92 -7013.46,70.57 -918.29,-103.07 -2487.42,-200.69 -3400.9,12.1 -213.7,917.25 616.88,997.15 1784.54,1769.54 283.6,187.62 513.59,286.1 777.88,461.93l1536.29 943.37c377.62,226.92 1255.67,864.73 1604.42,957.85l0 165.28c-442.85,103.22 -4812.94,2878.05 -5370.83,3225.19 -353.02,219.7 -414.96,264.49 -414.96,824.86 525.7,352.01 579,249.07 1405.06,247.99l11819.56 -0.04c0,486.7 -128.58,2214.64 82.69,2644.94 161.27,328.57 593.63,335.83 962.49,442.57 413.35,119.58 712.69,182.95 1092.99,312.1 2107.87,715.73 4608.38,1198.34 6794.74,1635.94 3160.45,632.56 6426.09,1042.18 9842.1,1398.86 414.15,43.26 947.45,93.68 1308.48,96.58 883.74,7.24 1785.17,165.59 2643.46,166.83 424.41,0.56 988.77,-36.49 1395.85,9.21 2605.12,292.5 5592.98,-25.45 8278,-11.53 1147.25,5.95 4086.75,-245.27 5230.18,-390.26 2638.91,-334.5 4861.06,-496.36 7532.84,-980.51 2450.45,-444.08 4643.74,-818 6955.82,-1474.91l3311.41 -903.83c560.21,-155.79 451.83,-296.39 444.26,-960.89 -23.79,-2077.87 -279.23,-1997.13 907.09,-1985.76 3742.62,35.81 7497.23,-11.06 11241.7,0.82 511.95,1.57 1018.51,139.17 1136.66,-280.57 135.7,-482.07 -269.77,-644.07 -541.53,-810.76 -562.88,-345.16 -4872.9,-3105.77 -5306.45,-3206.83 225.12,-307.27 1179.04,-754.71 1553.73,-1008.45 282.99,-191.63 493.41,-284.42 777.45,-462.4 279.19,-174.96 548.91,-340.41 809.61,-512.82 436.34,-288.54 2564.78,-1365.1 2739.13,-1813.32 157.32,-404.37 -11.57,-206.18 -11.57,-500.98 -1110.29,-258.71 -3876.17,-79.55 -5289.9,-82.78 -705.83,-1.6 -1080.01,87.58 -1734.51,83.86 -1091,-6.26 -6684.98,-161.72 -7192.01,81.61 -221.76,462.07 -82.66,1827.57 -82.66,2479.56 -897.64,209.11 -2161.82,725.98 -3095.86,1036.86 -2532.48,842.77 -5170.46,1399.65 -7793.74,1959.34 -737.58,157.41 -1519.32,298.76 -2370.42,439.83l-3688.87 526.48c-410.28,56.81 -824.56,170.18 -1234.95,170.18l111.25 -54.09c731.19,-275.14 1890.25,-465.41 2864.34,-855.06 1163.57,-465.47 2407.21,-868.17 3527.49,-1431.76l1344.43 -639.31c1449.87,-808.52 2944.16,-1578.03 4279.38,-2580.83 405.17,-304.27 761.05,-507.33 1154.73,-828.97l1100.14 -883.5c2177.5,-1692.53 4093.13,-3842.02 5798.08,-6021.44l826.01 -1157.66c1140.08,-1546.44 2101.91,-3283.42 2908.28,-5026.53 219.92,-475.34 422.73,-877.88 631.95,-1351.74 1481.45,-3355.74 2485.87,-7249.2 2810.06,-10993.03 606.12,-7000.62 -637.81,-13428.02 -3717.14,-19586.66 -863.56,-1727.12 -1824.01,-3405.05 -2986.64,-4948.21l-1311.9 -1663.58c-1863.34,-2391.55 -4159.85,-4413.1 -6576.2,-6235.07 -3489.47,-2631.09 -7928.51,-4697.94 -12192.41,-5578.18 -533.79,-110.21 -1084.39,-290.65 -1646.28,-337.39l-82.69 1157.12c-286.71,-1230.62 -516.73,-2128.19 -1190.19,-3025.1 -880.15,-1172.3 -3574.94,-2230.84 -4089.7,-680.42 -223.6,673.55 180.79,1014.27 163.36,1806.37 -36.47,1658.51 -1660.98,851.11 -1485.06,-402.41 44.06,-313.71 47.3,-266.62 237.26,-343.31 0,-566.09 -110.37,-489.17 247.97,-413.25 -164.79,-707.28 -477.85,-862.55 -578.61,-1239.85 223.2,-18.59 224.89,-38.75 413.26,-82.62 -66.5,-248.98 1.07,-181.46 -247.9,-247.95 101.86,-381.56 392.46,-316.67 128.48,-456.52 -203.62,-107.86 -549.52,-26.62 -786.61,-42.49 -1414.68,-94.69 -1057.93,-638.11 -2719.17,97.27 -393.38,174.18 -590.09,543.77 -590.09,1145.61 413.58,-110.47 545.61,-423.19 1122.27,-132.73 921.38,464.13 263.76,1346.37 -166.64,1914.92 -285.45,377.05 -404.82,529.16 -625.02,945.36 -1432.41,-31.9 -338.76,-1581.66 -512.72,-2460.6 -280.36,-1416.67 -3644.86,-1224.64 -4767.57,2304.84 -158.7,498.84 -218.74,957.02 -340.15,1478.23l293.07 73.92c5.57,1.34 25.87,3.29 37.5,8.77 -204.36,425.86 -82.62,1628.05 -82.62,2231.62 280.57,115.87 73.1,11.27 261.56,2.46l69 -2.46c0,826.5 0,1653.03 0,2479.61 0,412.38 8.42,831.96 3.33,1243.1 -5.88,475.72 -85.92,623.24 -85.92,1153.86 413.23,-110.34 567.52,-750.12 769.32,-1056.42 343.69,-521.73 -34.34,222.18 408.72,-155.07 101.09,-86.11 308.26,-604.03 448.58,-594.82 9.33,0.63 51.33,8.29 65.22,6.72l469.6 -420.02c496.65,-706.86 165.1,-553.79 566.11,-260.04l617.16 -825.41c275.98,-168.98 308.02,-18.54 566.38,-635.93 418.12,-999.05 87.89,-575 515.11,-748.86 445.9,-181.4 880.15,-1193.47 1307.26,-46.1 127.66,342.92 -24.14,616.11 -80.86,965.98 -114.73,708.01 -114.85,1419.15 -114.85,2199.53 124.25,51.31 117.96,32.58 142.36,40.67l105.64 42c-465.73,970.62 452.48,1187.33 -194.84,2036.73 -512.47,672.47 -1375.6,92.88 -1375.6,1186.77 200.39,-46.72 331.64,-86.47 495.91,-165.36 0,561.92 -70.64,474.17 165.33,826.56 369.66,-98.7 300.33,-589.84 1152.9,-831.88 673.95,-191.3 1272.34,167.75 665.44,-738.56 720.64,-167.84 1019.54,-1163.1 1322.47,-1735.7 238.67,174.87 336.52,441.49 544.9,694.88 304.27,369.91 281.65,333.05 281.65,958.22 -407.6,195.59 -647.13,195.07 -661.2,826.48l330.64 0c-104.34,447.66 -212.39,491.02 165.28,743.94 339.43,-248.72 -13.69,-210.03 413.25,-495.92 146.35,304.99 52.88,375.07 330.62,578.54 746.34,-499.77 -394.11,-767.07 553.27,-805.25 154.47,-6.21 416.69,143.74 228.54,-370.81 -86.79,-237.42 -223.18,-333.45 -451.23,-394.38l0 -247.9c378.9,0 425.02,52.61 676.06,73.26 331.86,27.33 414.29,-55.9 728.56,-73.57 489.29,-27.51 1071.34,0.31 1570.93,0.31 -54.96,-206 -289.54,-485.84 -414.09,-660.38l-1321.77 -2067.09c-329.16,-613.6 -1428.83,-2351.66 -1487.59,-3058.33zm-4298.04 54799.43c-243.35,363.45 -165.28,335.09 -165.28,909.17l4132.69 0 0 495.94c-1040.49,0 -6115.45,-155.74 -6612.3,82.64 90.56,-250.15 32.01,-149.04 578.79,-412.97 272.68,-131.6 417.66,-240.7 688.13,-386.39 276.03,-148.64 1163.75,-631.15 1377.97,-688.39zm165.35 -82.66l-165.35 82.66 165.35 -82.66zm165.26 -82.62l-165.26 82.62 165.26 -82.62zm82.69 -82.69l-82.69 82.69 82.69 -82.69zm6942.94 -7521.49l-6942.94 7521.49 6942.94 -7521.49zm0 0l5289.8 0 0 9174.57 -3967.4 0 0 -4711.25c0,-817.43 -774.34,-1074.5 -1487.76,-1074.5l90.4 -74.88c1023.95,-869.3 1199.87,-2079.88 405.99,-2983.73 -187.71,-213.7 -174.73,-116.81 -331.03,-330.21zm-3471.5 1653.1c0,249.03 193.39,831.71 300.1,1022.33 111.31,198.73 144.26,216.28 296.04,365.25l260.56 235.36c12.33,10.6 33.58,28.41 44.76,37.9l90.38 74.88c-1547.82,0 -327.87,-167.55 -1464.53,1345.7 -220.64,293.67 -351.94,543 -582.07,823.06 -241.1,293.44 -343.53,543.59 -763.65,641.44 -9.86,-444.61 -231,-983.32 -331.64,-1404.05l-1073.44 -4299.05c-481.01,10.75 -1340.21,544.71 -1735.42,744.23l-4244.11 1954.85c-165.45,79.87 -246.43,126 -389.04,189.58 -228.8,102.05 -472.23,68.18 -418.11,503.02l1083.57 5286.97 -3388.83 0 0 -9174.57 13141.99 0c-229.6,199.52 -430.41,380.34 -577.23,662.65 -86.64,166.71 -249.33,750.01 -249.33,990.45zm11323.58 -2975.52c-280.27,-187.72 -604.9,-273.66 -921.1,-401.42 -2650.28,-1070.8 -5688.91,-680.91 -8385.78,-61.55 -1618.09,371.61 -2965.1,545.58 -4744.25,545.58 -3919.9,0 -6801.05,-1641.62 -10832.93,-1079.77 -623.14,86.81 -1134.29,199.22 -1702.86,363.5 -374.61,108.25 -404,138.72 -723.57,268.33 -235.67,95.56 -586.11,234.73 -791.77,282.66 0,-417.85 86.72,-634.08 83.74,-1156.06l-1.08 -3720.52c856.25,-71.25 2577.32,-909.19 5951.01,-909.19 1748.78,0 4018.46,275.77 5862.18,419.51l2956.38 139.29 2998.49 -230.58c1747.26,-96.4 2567.64,-328.22 4713.69,-328.22 996.1,0 2123.17,175.92 2988.63,317.56 564.35,92.39 2233.84,483.3 2631.84,674.32 0,1713.13 -82.62,3150.56 -82.62,4876.56zm-31325.81 -3636.82c299.82,-24.94 365.09,-104.98 614.02,-212.54 258.61,-111.7 388.58,-156.94 656.7,-252.47 457.6,-162.94 819.24,-334.1 1291.56,-444.16l0 3471.46c-668.23,353.58 -1303.21,910.32 -1653.04,991.86 -14.18,-635.37 -892.13,-2934.86 -909.24,-3554.15zm33640.11 3471.49c-230.37,-61.48 -532.95,-334.88 -759.71,-480.17 -227.53,-145.74 -548.84,-368.04 -810.7,-429.03l0 -3471.46c472.05,110.01 829.08,264.3 1250.89,402.21 464.69,151.85 850.81,418.95 1228.67,506.96 -41.51,499.03 -314.49,1172.77 -447.24,1701.76l-461.91 1769.73zm-21655.26 -21820.6l578.53 1570.42 -1157.11 0c103.75,-216.28 210.89,-509.42 300.16,-774.29 98.88,-293.37 220.62,-548.02 278.42,-796.13zm7406.79 1653.08c34.52,1040.33 -952.02,1792.66 -1953.39,1871.38 -1171.39,92.14 -2250.16,-470.79 -2342.38,-1375.46 -559.51,-1038.1 -184.76,-3156.35 1775.63,-3380.93 429.12,-49.12 964.96,53.44 1244.31,142.88 332.16,106.31 367.69,195.37 634.69,439.76l171.07 159.56c587.18,607.98 579.66,1413.69 470.07,2142.81zm445.29 -2727.53c1258.25,0 714.57,-150.61 1166.26,1396.02 409.5,1402.32 321.49,1667.8 321.49,3067.24 -635.53,0 -402.63,23.9 -678.45,-974.59 -184.43,-667.5 -796.29,-3017.6 -809.3,-3488.67zm1818.39 2892.82c-45.8,-550.58 -247.95,-932.14 -247.95,-1570.42l0 -11984.77c870.61,19.4 3289.29,1256.89 4182.75,1850.99 3140.13,2088.01 5318.24,5369.47 6018.65,9106.98 255.54,1363.83 132.45,1148.72 225.28,2006.35 144.61,1335.74 28.83,569.84 -11.62,1418.1 -130.39,2732.27 -993.78,5064.12 -2446.12,7307.01 -118.85,183.52 -179.51,270.71 -305.39,438.57 -868.62,1158.17 -701.96,948.87 -1774.42,2027.61 -1208.61,1215.71 -4429.18,3168.4 -5971.82,3202.76 0,-953.75 82.69,-1599.11 82.69,-2562.28l0 -9587.78c980.61,0 732.4,224.04 1470.45,-2414.29 60.05,-214.59 69.05,-241.36 126.33,-452.2l138.94 -439.67 909.15 3306.16 1074.52 0 1157.19 -4628.63c-1296.08,0 -947.38,-245.86 -1355.96,1371.64 -75.45,298.86 -119.63,492.92 -179,812.84 -68.86,371.09 -50.44,537.64 -283.43,708.43 -8.86,-396.26 -603.73,-2291.29 -743.89,-2892.91l-1157.18 0 -856.7 2862.75c-6.4,15.56 -20.46,44.36 -25.8,56.81 -5.32,12.4 -15.61,38.51 -26.67,55.95zm-11984.78 1653.12l991.84 0c113.81,-215.11 353.98,-819.96 413.25,-1074.52l1901.08 0c36.42,438.17 294.11,636.33 330.56,1074.52l661.27 0 0 12150.06c-403.69,-33.59 -837.01,-203.02 -1157.3,-330.47 -774.83,-308.42 -1328.4,-497.68 -2051.29,-924.22 -1711.4,-1009.9 -2895.47,-1943.1 -4158.45,-3528.35 -1914.41,-2402.88 -3130,-5685.18 -3130,-9020.14 0,-1962.27 455.41,-3556.39 979.31,-4971.79 735.43,-1987.04 1660.73,-3277.73 3045.33,-4806.73 11.41,-12.66 26.86,-31.69 38.27,-44.34l118.85 -129.15c991.56,-991.48 2727.54,-2285.03 4035.83,-2824.4 523.64,-215.9 1678.48,-765.38 2279.45,-778.78l0 13472.59c0,392 535.53,1135.84 578.58,1653.04l-495.99 0c0,-1501.94 -212.06,-1212.11 -754.2,-2717.2 -774.1,-2148.93 -599.72,-1828.75 -1642.72,-1828.75 -276.19,0 -403.52,551.33 -602.39,1050.71 -167.75,421.34 -312.82,783.05 -472.11,1180.93 -176.81,441.61 -879.89,2045.1 -909.17,2396.99zm-19010.37 3554.09c0,4000.78 182.23,6846.32 1677.32,10638.04l995.11 2393.71c1057.86,2112.32 2337.13,4304.19 3920.56,6080.6l3350.67 3344.22 2901.98 2139.91c381.14,231.42 651.73,406.57 1023.75,629.37 2195.25,1314.36 4608.06,2349.58 7107.78,2975.97 4932.01,1235.87 10687.21,1098.17 15461.16,-690.07 765.75,-286.81 1466.91,-597.52 2233.54,-907.3 1623.29,-655.88 4419.71,-2420.85 5770.58,-3569.29 291.03,-247.34 557.98,-503.28 839.61,-730.81 904.72,-730.79 1769.66,-1535.47 2550.65,-2408.62l189.07 -224.14c1786.96,-2142.97 2140.68,-2607.97 3620.98,-5057.68 1197.71,-1982.1 2104.37,-4444.97 2660.97,-6678.93 1521.69,-6107.73 1023.21,-12861.15 -1709.31,-18293.32 -2530.78,-5031.03 -5437.56,-8417.54 -10374.4,-11528.84 -691.69,-435.99 -1260.99,-735.24 -2022.67,-1118.19l-2188.53 -952.32c-624.36,-252.61 -1728.91,-741.17 -2385.04,-755.81 0,1554.87 -382.6,1117.57 1788.55,1848.24 1261.53,424.55 2483.97,1034.99 3588.7,1701.15l1230.83 752.8c1389.05,884.82 3683.2,2699.19 4691.07,3904.94l3408.42 4526.31 1354.86 2612.52c141.12,293.77 288.96,631.06 396.1,926.38 118.14,325.5 232.52,603 368.36,954.12 879.81,2273.99 1439.55,5322.52 1439.55,7817.67 0,2666.08 -139.51,5280.16 -917.82,7760.77 -365,1163.07 -740.26,2353.05 -1233.48,3477.82 -715.29,1631.31 -1578.67,3149.83 -2559.7,4631.19 -1375.95,2077.84 -3188.03,3981.59 -5113.04,5549.28l-2018.71 1535.43c-520.59,390.47 -2427.97,1617.57 -3034.94,1758.97l0 -9753.18 -7261.26 -152.98c227.93,-58.62 256.41,-61.12 486.68,-91.94 3460.59,-463.06 4667.98,-839.33 8004.45,502.87 429.03,172.62 626.51,441.01 1167.13,485.94l0 -1322.47 1983.66 1322.47c196.15,-842 478.32,-1663.79 695.24,-2528.27 234,-932.47 497.41,-1684.13 709.9,-2596.26 -963.85,-645.33 -777.33,-309.73 -1250.42,-1477.16 -896.52,-2212.18 -2070.88,-4395.56 -2976.59,-6611.31 -388.1,-949.46 -325.29,-754.06 204.71,-1884.83 170.74,-364.11 257.74,-610.09 409.78,-995.38 279.75,-709.01 399.64,-1333.62 586.83,-2140.72 858.74,-3703.06 -54.21,-8201.66 -2110.02,-11179.62 -141.02,-204.35 -209.46,-325.57 -366.51,-542.68 -762.67,-1054.43 -1621.91,-2014.25 -2644.43,-2810.71l-3370.73 -2084.43c-5418.06,-2622.06 -12612.48,-1232.49 -16729.54,2885.06 -2087.05,2087.24 -3341.06,4292.47 -4136.44,7187.16 -1496.09,5444.82 1214.96,10360.09 1179.97,10618.85 -0.26,1.78 -3903.54,8064.52 -4274.96,8520 -226.15,277.34 -586.83,395.89 -889.32,598.44 204.97,427.15 558.69,2071.58 713.54,2592.62 221.35,744.88 405.26,1834.61 774.24,2531.93 321.96,-215.63 598.76,-424.44 924.73,-645.76 323,-219.3 655.62,-560.53 1058.94,-594.05l0 1239.81 2148.67 -992.21c716.7,-265.46 1783.25,-451.01 2727.25,-496.27 371.93,-17.86 305.44,-76.39 664.22,-85.08 672.48,-16.17 2802.91,319.78 3528.35,439.81 428.19,70.85 932.57,224.53 1428.53,224.53l0 82.64c-1803.34,0 -4212.59,-86.32 -5961.58,-10.45 -484.81,21.02 -415.29,95.6 -410.02,581.79l7.27 9099.15c-644.4,-150.14 -2447.59,-1383.94 -2975.5,-1735.72 -1703.12,-1134.76 -3789.61,-2839.8 -5029.58,-4392.94 -412.25,-516.33 -950.35,-1016.31 -1335.65,-1557.25l-767.25 -1051.13c-333.19,-453.24 -593.32,-937.79 -901.13,-1413.17 -1639.96,-2532.93 -2681.69,-5521.49 -3323.51,-8495.96 -686.02,-3179.13 -678.52,-7457.07 116.11,-10613.25 180.54,-716.98 349.11,-1423.06 568.13,-2076.86 114.61,-342.14 193.85,-651.31 317.75,-1004.68 546.19,-1558.16 1312.72,-3105.63 2124.64,-4487.7 180.66,-307.52 315.5,-520.13 511.04,-811.43 1413.92,-2106.18 2991.84,-3920.98 4887.92,-5609.1l1083.48 -900.22c142.1,-110.9 233.65,-152.06 391.12,-270.07l3230.48 -2059.37c342.05,-182.49 504.48,-311.58 865.51,-456.92 632.39,-254.51 1160.61,-547.6 1829.75,-815.16 659.07,-263.58 1268.52,-522.82 1960.8,-684.1l0 -1239.87c-1556.71,34.71 -6234.42,2589.53 -7587.68,3487.87 -293.94,195.14 -491.42,352.15 -777.01,545.53 -302.27,204.71 -508.71,390.83 -798.4,606.69 -1179.03,878.3 -2250.49,1889.07 -3214.94,2984.13l-1023.62 1125.38c-1615.77,1983.97 -3126.91,4335.4 -4156.86,6918.7 -537.59,1348.49 -999.66,2779.61 -1352.56,4185.26 -386.18,1538.38 -677.84,3201.37 -677.84,4859.94z"/>
 </g>
</svg>
